<svg width="600" height="600" viewBox="0 0 600 600" fill="none" xmlns="http://www.w3.org/2000/svg">
<path d="M295 522.5C420.645 522.5 522.5 420.645 522.5 295C522.5 169.355 420.645 67.5 295 67.5C169.355 67.5 67.5 169.355 67.5 295C67.5 420.645 169.355 522.5 295 522.5Z" fill="white"/>
<path d="M295 503C409.875 503 503 409.875 503 295C503 180.125 409.875 87 295 87C180.125 87 87 180.125 87 295C87 409.875 180.125 503 295 503Z" fill="#FFE84A" stroke="#231F20" stroke-width="9.33" stroke-miterlimit="10"/>
<path d="M379.77 273.2V214.75C379.77 209.387 377.64 204.244 373.848 200.452C370.056 196.66 364.913 194.53 359.55 194.53C354.187 194.53 349.044 196.66 345.252 200.452C341.46 204.244 339.33 209.387 339.33 214.75V216.57C339.395 213.398 338.826 210.244 337.657 207.294C336.488 204.344 334.742 201.657 332.521 199.391C330.301 197.124 327.65 195.323 324.725 194.094C321.799 192.865 318.658 192.232 315.485 192.232C312.312 192.232 309.171 192.865 306.245 194.094C303.32 195.323 300.669 197.124 298.449 199.391C296.228 201.657 294.482 204.344 293.313 207.294C292.144 210.244 291.575 213.398 291.64 216.57V216.31C291.705 213.172 291.142 210.052 289.986 207.134C288.83 204.216 287.103 201.558 284.906 199.316C282.71 197.074 280.088 195.293 277.194 194.077C274.301 192.861 271.194 192.234 268.055 192.234C264.916 192.234 261.809 192.861 258.915 194.077C256.022 195.293 253.4 197.074 251.203 199.316C249.007 201.558 247.28 204.216 246.124 207.134C244.968 210.052 244.405 213.172 244.47 216.31V244.94C244.47 239.063 242.135 233.426 237.979 229.271C233.824 225.115 228.187 222.78 222.31 222.78C216.433 222.78 210.796 225.115 206.64 229.271C202.485 233.426 200.15 239.063 200.15 244.94V316.14C200.15 337.66 208.699 358.298 223.915 373.515C239.132 388.731 259.77 397.28 281.29 397.28H292.5C318.32 397.28 343.082 387.024 361.34 368.767C379.599 350.511 389.857 325.75 389.86 299.93C389.875 290.087 386.286 280.578 379.77 273.2Z" fill="white"/>
<path d="M222.31 296.1C216.433 296.1 210.796 293.765 206.64 289.609C202.485 285.454 200.15 279.817 200.15 273.94V244.94C200.15 239.063 202.485 233.426 206.64 229.271C210.796 225.115 216.433 222.78 222.31 222.78V222.78C228.187 222.78 233.824 225.115 237.979 229.271C242.135 233.426 244.47 239.063 244.47 244.94V273.94C244.47 279.817 242.135 285.454 237.979 289.609C233.824 293.765 228.187 296.1 222.31 296.1Z" stroke="#231F20" stroke-width="9.33" stroke-linecap="round" stroke-linejoin="round"/>
<path d="M389.86 299.93C389.86 289.191 385.594 278.893 378.001 271.299C370.408 263.706 360.109 259.44 349.37 259.44H252.37C250.269 259.443 248.254 260.279 246.769 261.766C245.284 263.253 244.45 265.269 244.45 267.37V272.37C244.45 281.687 248.151 290.623 254.74 297.211C261.328 303.799 270.263 307.5 279.58 307.5H327.7" stroke="#231F20" stroke-width="9.33" stroke-linecap="round" stroke-linejoin="round"/>
<path d="M291.64 216.57V259.44" stroke="#231F20" stroke-width="9.33" stroke-linecap="round" stroke-linejoin="round"/>
<path d="M379.77 273.2V214.75C379.77 209.387 377.64 204.244 373.848 200.452C370.056 196.66 364.913 194.53 359.55 194.53C354.187 194.53 349.044 196.66 345.252 200.452C341.46 204.244 339.33 209.387 339.33 214.75V216.57C339.395 213.398 338.826 210.244 337.657 207.294C336.488 204.344 334.742 201.657 332.521 199.391C330.301 197.124 327.65 195.323 324.725 194.094C321.799 192.865 318.658 192.232 315.485 192.232C312.312 192.232 309.171 192.865 306.245 194.094C303.32 195.323 300.669 197.124 298.449 199.391C296.228 201.657 294.482 204.344 293.313 207.294C292.144 210.244 291.575 213.398 291.64 216.57V216.31C291.705 213.172 291.142 210.052 289.986 207.134C288.83 204.216 287.103 201.558 284.906 199.316C282.71 197.074 280.088 195.293 277.194 194.077C274.301 192.861 271.194 192.234 268.055 192.234C264.916 192.234 261.809 192.861 258.915 194.077C256.022 195.293 253.4 197.074 251.203 199.316C249.007 201.558 247.28 204.216 246.124 207.134C244.968 210.052 244.405 213.172 244.47 216.31V244.94C244.47 239.063 242.135 233.426 237.979 229.271C233.824 225.115 228.187 222.78 222.31 222.78C216.433 222.78 210.796 225.115 206.64 229.271C202.485 233.426 200.15 239.063 200.15 244.94V316.14C200.15 337.66 208.699 358.298 223.915 373.515C239.132 388.731 259.77 397.28 281.29 397.28H292.5C318.32 397.28 343.082 387.024 361.34 368.767C379.599 350.511 389.857 325.75 389.86 299.93C389.875 290.087 386.286 280.578 379.77 273.2V273.2Z" stroke="#231F20" stroke-width="9.33" stroke-linecap="round" stroke-linejoin="round"/>
<path d="M339.33 216.57V259.44" stroke="#231F20" stroke-width="9.33" stroke-linecap="round" stroke-linejoin="round"/>
<path d="M327.17 307.46C322.044 307.46 316.969 308.47 312.234 310.433C307.499 312.397 303.197 315.274 299.575 318.901C295.953 322.527 293.081 326.833 291.124 331.57C289.167 336.307 288.163 341.384 288.17 346.51V358.05" stroke="#231F20" stroke-width="9.33" stroke-linecap="round" stroke-linejoin="round"/>
</svg>
